<?xml version="1.0" encoding="UTF-8" ?>
<svg xmlns="http://www.w3.org/2000/svg" version="1.1" width="2000" height="2000">
    <path transform="translate(2000,2000),rotate(180)" d="M1161 1706h170v137h274v-375l-222 -171v-478l170 -170v-205h153v-239h-1365v239h153v205l171 170v478l-222 171v375h273v-137h171v137h274v-137zM1639 376h-1230v-103h1230v103zM1484 580h-920v-136h920v136zM1314 1297h-580v-478h580v478zM1536 1536v239h-137v-137h-308 v137h-135v-137h-307v137h-137v-239h1024zM1459 649l-103 102h-663l-105 -102h871zM1349 1365l127 103h-904l128 -103h649z"/>
</svg>
